<svg xmlns="http://www.w3.org/2000/svg" xmlns:xlink="http://www.w3.org/1999/xlink" cursor="default" viewBox="0 0 256 256">
    <defs>
        <linearGradient id="innoGrad1">
            <stop offset="0" stop-color="#ff8080"/>
            <stop offset="1" stop-color="#faa"/>
        </linearGradient>
        <linearGradient id="innoGrad0">
            <stop offset="0" stop-color="#ffd5d5"/>
            <stop offset="1" stop-color="#faa"/>
        </linearGradient>
        <linearGradient id="linearGradient973" x1="145.207" x2="72.573" y1="26.438" y2="40.628" gradientTransform="rotate(.655 -10757.212 11476.65) scale(.98633)" gradientUnits="userSpaceOnUse" xlink:href="#innoGrad1"/>
        <linearGradient id="linearGradient981" x1="31.009" x2="96.747" y1="49.138" y2="41.126" gradientTransform="rotate(.655 -10757.212 11476.65) scale(.98633)" gradientUnits="userSpaceOnUse" xlink:href="#innoGrad0"/>
        <linearGradient id="linearGradient1184" x1="135.093" x2="122.637" y1="39.791" y2="37.189" gradientTransform="matrix(2.70176 0 0 2.70176 -126.434 23.573)" gradientUnits="userSpaceOnUse" xlink:href="#innoGrad1"/>
        <linearGradient id="linearGradient2670" x1="125.674" x2="142.271" y1="-29.995" y2="-33.259" gradientTransform="matrix(1.74868 0 0 1.79522 47.056 58.05)" gradientUnits="userSpaceOnUse" xlink:href="#innoGrad0"/>
        <linearGradient id="linearGradient12784" x1="208.919" x2="241.393" y1="273.785" y2="267.488" gradientTransform="matrix(.85273 0 0 .85273 31.92 27.727)" gradientUnits="userSpaceOnUse" xlink:href="#innoGrad0"/>
        <linearGradient id="linearGradient13185" x1="205.647" x2="233.907" y1="213.907" y2="210.57" gradientTransform="matrix(.85273 0 0 .85273 31.92 27.727)" gradientUnits="userSpaceOnUse" xlink:href="#innoGrad0"/>
    </defs>
    <g transform="rotate(51.575 223.076 58.718)">
        <path fill="url(#linearGradient973)" stroke="#000" stroke-width=".4" d="M157.85 161.531c4.02-18.918 77.02-35.89 89.553-21.173 2.216-4.271 6.09-10.484.21-13.562-15.06-9.475-77.07.434-92.103 17.344-6.063 6.438-5.276 15.748 2.34 17.391z"/>
        <ellipse cx="283.489" cy=".471" fill="url(#linearGradient2670)" stroke="#000" stroke-linecap="round" stroke-width=".404" rx="14.692" ry="15.182" transform="matrix(.88348 .46846 -.29207 .9564 0 0)"/>
        <path style="font-variation-settings:normal" fill="url(#linearGradient12784)" stroke="#000" stroke-width=".341" d="M198.453 224.542c7.13 30.487 21.413 69.855 35.464 85.69 4.646 5.237 13.652 1.57 13.71-5.43.19-23.197-1.446-58.021-7.003-87.642-5.477-29.195-46.364-10.55-42.17 7.382z"/>
        <path style="font-variation-settings:normal" fill="url(#linearGradient13185)" stroke="#000" stroke-width=".341" d="M209.59 199.265c-7.39 4.839-12.857 16.275-10.956 25.05 1.47 6.784 41.912-5.476 39.03-15.138-3.974-13.325-19.814-15.32-28.074-9.912z"/>
        <path fill="url(#linearGradient1184)" fill-rule="evenodd" stroke="#000" stroke-width=".4" d="M251.882 119.717c.596-2.155-11.661-25.082-25.854-38.285-14.192-13.203-30.79-13.428-37.63-2.173-6.778 11.15 17.745 117.206 19.206 123.145 1.461 5.94 13.003 3.972 12.042-.945-.96-4.918-24.182-105.028-20.337-115.236 3.576-9.49 12.16-5.678 20.987 4.283 8.827 9.961 20.356 32.228 23.256 32.904 5.801 1.351 7.14.616 8.33-3.693z"/>
        <ellipse cx="287.121" cy="-.307" fill="#211e18" stroke="#000" stroke-linecap="round" stroke-width=".319" rx="7.134" ry="7.009" transform="matrix(.87848 .47778 -.2718 .96236 0 0)"/>
        <path fill="url(#linearGradient981)" stroke="#000" stroke-width=".4" d="M155.51 144.14c-5.482 4.255-8.43 9.78-8.16 15.819.514 11.566 10.24 19.498 21.007 21.465 28.071 5.133 65.445-7.084 82.487-25.042 10.254-10.802 9.52-23.4 2.623-26.019-5.591-2.123-7.044 2.823-8.272 8.67-2.33 11.097-23.886 21.912-39.27 24.94-15.395 3.032-42.18 6.4-50.974-7.31-4.35-6.782.56-12.523.56-12.523z"/>
        <path fill="#fff" fill-opacity=".757" d="M192.305 111.74c-3.62-14.137-7.963-37.846 7.449-38.116-13.436 8.537-7.55 24.883-7.449 38.115zM183.786 172.461c-13.261 1.617-34.408-5.3-34.549-17.841 5.8 15.641 24.242 14.763 34.55 17.841zM205.629 223.13c-7.95-5.062-3.687-11.549.03-17.976-2.095 8.905-4.782 10.93-.03 17.976zM217.985 268.351c-6.243-8.147-14.725-31.221-12.64-38.388 1.41 7.985 9.153 30.68 12.64 38.388z"/>
    </g>
</svg>
