<svg xmlns="http://www.w3.org/2000/svg" xmlns:xlink="http://www.w3.org/1999/xlink" viewBox="0 0 256 256">
    <defs>
        <linearGradient id="linearGradient1057" x1="-76.627" x2="-59.383" y1="9.058" y2="45.962" gradientTransform="translate(44.378 133.026)" gradientUnits="userSpaceOnUse" xlink:href="#innoGrad1"/>
        <linearGradient id="innoGrad2-0">
            <stop offset="0" stop-color="#9c9c9c" stop-opacity=".693"/>
            <stop offset="1" stop-color="#999" stop-opacity=".919"/>
        </linearGradient>
        <linearGradient id="innoGrad1" x1="37.665" x2="14.218" y1="74.645" y2="116.292" gradientTransform="rotate(-147.421 77.545 -25.124)" gradientUnits="userSpaceOnUse" xlink:href="#radialGradient4642">
            <stop offset="0" stop-color="#f55"/>
            <stop offset="1" stop-color="#ff8080"/>
        </linearGradient>
        <linearGradient id="linearGradient4632" x1="-223.051" x2="-202.999" y1="-16.689" y2="12.893" gradientTransform="matrix(.72617 0 0 .72291 150.942 239.61)" gradientUnits="userSpaceOnUse" xlink:href="#innoGrad1"/>
        <radialGradient id="radialGradient4642" cx="110.67" cy="195.71" r="47.788" gradientTransform="matrix(1 0 0 1.0275 0 -5.426)" gradientUnits="userSpaceOnUse">
            <stop offset="0" stop-color="#f55"/>
            <stop offset=".67" stop-color="#f55"/>
            <stop offset=".802" stop-color="#ff8080"/>
            <stop offset="1" stop-color="#faa"/>
        </radialGradient>
        <linearGradient id="linearGradient4687" x1="115.403" x2="180.164" y1="104.594" y2="160.552" gradientTransform="translate(-4.845 31.305)" gradientUnits="userSpaceOnUse" xlink:href="#innoGrad2-0"/>
        <linearGradient id="linearGradient7676" x1="37.665" x2="14.218" y1="74.645" y2="116.292" gradientTransform="rotate(-147.421 77.545 -25.124)" gradientUnits="userSpaceOnUse" xlink:href="#innoGrad1"/>
        <linearGradient id="linearGradient7860" x1="-76.627" x2="-59.383" y1="9.058" y2="45.962" gradientTransform="matrix(.42799 0 0 .43752 -193.628 -17.423)" gradientUnits="userSpaceOnUse" xlink:href="#innoGrad1"/>
        <linearGradient id="linearGradient9269" x1="111.702" x2="92.439" y1="136.902" y2="119.219" gradientUnits="userSpaceOnUse" xlink:href="#innoGrad2-0"/>
        <linearGradient id="linearGradient10264" x1="37.665" x2="14.218" y1="74.645" y2="116.292" gradientTransform="matrix(-.51636 -.20143 .32995 -.31522 65.65 228.505)" gradientUnits="userSpaceOnUse" xlink:href="#innoGrad1"/>
    </defs>
    <g>
        <g id="g894">
            <g stroke="#000" stroke-width="1.103">
                <path fill="url(#linearGradient7676)" fill-rule="evenodd" d="M224.462-133.846c-29.688-8.564-92.83 8.027-81.448 71.448.144 4.166 19.855 2.285 22.814 2.03-15.82-50.609 29.273-55.281 57.591-63.196z" transform="matrix(.4066 .1254 -.1254 .4066 -10.109 216.513)"/>
                <g stroke-linecap="round" transform="matrix(.4066 .1254 -.1254 .4066 -10.109 216.513)">
                    <ellipse cx="7.741" cy="260.902" fill="url(#linearGradient4632)" stroke-width=".799" rx="16.713" ry="16.747" transform="matrix(-.4472 -.89443 .88402 -.46744 0 0)"/>
                    <ellipse cx="-22.048" cy="165.71" fill="url(#linearGradient1057)" rx="23.015" ry="23.166" transform="rotate(-117.22)"/>
                </g>
            </g>
            <g fill="#fff">
                <path stroke-width=".739" d="M224.757-143.333c1.69.164 3.874.268 6.61 1.447 1.693.73 2.985 1.644 3.637 2.293.413.41.916 1.008 1.411 1.767a13.988 13.988 0 012.18 6.149c.24 2.303-.162 4.008-.423 5.152.256-1.123.277-2.93-.409-5.023-.695-2.122-1.884-3.885-3.13-5.282-.55-.616-1.043-1.09-1.405-1.449-.596-.592-1.379-1.538-2.691-2.548-1.97-1.516-4.172-2.35-5.78-2.506z" transform="matrix(.4066 .1254 -.1254 .4066 -10.109 216.513)"/>
                <path d="M158.2-104.598c.141-.305.395-1.065.927-2.003.545-.96 1.278-1.98 1.784-2.51l.01-.01c1.044-1.092 3.075-2.98 6.022-5.235a74.766 74.766 0 017.492-5.056c3.424-2.008 5.924-3.05 7.652-3.697-1.683.63-4.214 1.854-7.46 4.004-2.495 1.653-4.939 3.537-7.137 5.424a74.59 74.59 0 00-5.688 5.422c-.462.483-1.435 1.317-2.187 2.037-.787.753-1.264 1.3-1.416 1.625z" transform="matrix(.4066 .1254 -.1254 .4066 -10.109 216.513)"/>
                <path stroke-width=".978" d="M155.33-73.989c2.384.1 5.473.095 9.277 1.387 2.355.8 4.129 1.852 5.014 2.615.56.482 1.236 1.192 1.891 2.1a14.565 14.565 0 012.713 7.478c.199 2.836-.474 4.97-.914 6.402.432-1.405.571-3.642-.272-6.191-.855-2.584-2.432-4.694-4.113-6.346-.74-.729-1.412-1.285-1.902-1.708-.809-.696-1.86-1.82-3.657-2.99-2.697-1.756-5.768-2.653-8.037-2.747z" transform="matrix(.4066 .1254 -.1254 .4066 -10.109 216.513)"/>
            </g>
        </g>
        <use width="100%" height="100%" transform="matrix(.82822 0 0 .90746 50.76 -14.783)" xlink:href="#g894"/>
        <use width="100%" height="100%" transform="matrix(.7805 0 0 .90774 76.997 -43.47)" xlink:href="#g894"/>
        <use width="100%" height="100%" transform="matrix(.7623 0 0 .89225 103.865 -70.906)" xlink:href="#g894"/>
        <use width="100%" height="100%" transform="matrix(.7329 0 0 .87684 128.938 -98.858)" xlink:href="#g894"/>
        <path style="font-variation-settings:normal" fill="url(#linearGradient9269)" stroke="#000" stroke-opacity=".766" stroke-width=".3" d="M213.11 21.525c5.906 2.204-43.018 78.968-67.764 105.932-24.746 26.965-43.86 53.223-66.71 69.692-22.85 16.47-55.228 27.722-54.016 23.148 1.211-4.575-28.29-27.815-20.52-51.1 7.769-23.283 47.088-40.13 70.436-62.982 23.35-22.853 78.064-96.122 95.78-96.153 17.716-.03 36.889 9.26 42.794 11.463z"/>
        <path style="font-variation-settings:normal" fill="url(#linearGradient4687)" stroke="#000" stroke-opacity=".766" stroke-width=".3" d="M216.529 23.106c15.595 6.304-40.847 80.369-60.375 111.805-19.528 31.436-39.388 52.85-62.238 69.319-22.85 16.47-65.768 36.863-67.456 21.616-1.687-15.248-29.734-31.651-22.36-56.648 7.373-24.997 47.088-40.13 70.436-62.983 23.35-22.853 68.103-82.524 86.09-92.426 17.987-9.901 40.307 3.014 55.903 9.317z"/>
        <g id="g9721" stroke="none" stroke-opacity="1" display="inline">
            <path fill="url(#linearGradient10264)" fill-rule="evenodd" stroke="#000" stroke-width=".3" d="M60.18 200.713c-2.894 1.142-3.588.65-3.466 6.741.088 1.559 7.487.262 9.3.166.474-1.15.612-1.908.946-3.84.334-1.93-3.886-4.21-6.78-3.067z"/>
            <ellipse cx="-222.057" cy="-3.123" fill="url(#linearGradient7860)" stroke="#000" stroke-width=".285" rx="9.85" ry="10.136" transform="matrix(-.28815 -.95758 .95852 -.28504 0 0)"/>
            <path fill="#fff" stroke-width=".411" d="M59.879 205.05c.75.048 1.78.069 3.149.515 1.303.424 2.343 1.073 2.872 1.553.09.08.189.179.295.292.646.693 1.336 1.74 1.761 2.996.435 1.281.433 2.253.447 2.924-.014-.65-.264-1.651-.914-2.729-.66-1.093-1.469-1.862-2.113-2.434-.105-.093-.198-.175-.278-.248-.5-.453-1.183-1.178-2.318-1.854-1.112-.662-2.19-.97-2.901-1.015z"/>
        </g>
        <use width="100%" height="100%" transform="matrix(.95 0 0 .95 44.437 -23.346)" xlink:href="#g9721"/>
        <use width="100%" height="100%" transform="matrix(.8988 0 0 .8988 71.015 -41.548)" xlink:href="#g9721"/>
        <use width="100%" height="100%" transform="matrix(.86668 0 0 .86668 98.734 -65.33)" xlink:href="#g9721"/>
        <use width="100%" height="100%" transform="matrix(.87478 0 0 .91269 122.174 -106.709)" xlink:href="#g9721"/>
    </g>
</svg>
