<svg xmlns="http://www.w3.org/2000/svg" xmlns:xlink="http://www.w3.org/1999/xlink" viewBox="0 0 256 256">
    <defs>
        <linearGradient id="innoGrad1">
            <stop offset="0" stop-color="#f55"/>
            <stop offset="1" stop-color="#ff2a2a"/>
        </linearGradient>
        <linearGradient id="innoGrad2">
            <stop offset="0" stop-color="#faa"/>
            <stop offset="1" stop-color="#ff8080"/>
        </linearGradient>
        <radialGradient id="radialGradient3210" cx="83.242" cy="66.493" r="27.865" fx="83.242" fy="66.493" gradientTransform="matrix(1.37372 .0704 -.06053 1.18108 85.361 .166)" gradientUnits="userSpaceOnUse" xlink:href="#innoGrad2"/>
        <radialGradient id="radialGradient4260" cx="55.887" cy="89.428" r="28.108" fx="55.887" fy="89.428" gradientTransform="matrix(2.4831 -1.04688 .47283 1.1215 -24.539 116.024)" gradientUnits="userSpaceOnUse" xlink:href="#innoGrad2"/>
        <radialGradient id="radialGradient4268" cx="47.812" cy="115.682" r="28.108" fx="47.812" fy="115.682" gradientTransform="matrix(.60874 -.00546 .01993 2.36397 147.228 -65.089)" gradientUnits="userSpaceOnUse" xlink:href="#innoGrad2"/>
        <radialGradient id="radialGradient4664" cx="69.033" cy="62.025" r="27.865" fx="69.033" fy="62.025" gradientTransform="matrix(.67937 -.0168 .03956 1.60073 84.12 22.391)" gradientUnits="userSpaceOnUse" xlink:href="#innoGrad2"/>
        <radialGradient id="radialGradient10862" cx="40.379" cy="93.429" r="8.332" fx="40.379" fy="93.429" gradientTransform="matrix(2.84203 0 0 3.85104 -19.49 -207.851)" gradientUnits="userSpaceOnUse" xlink:href="#innoGrad1"/>
        <radialGradient id="radialGradient11913" cx="124.44" cy="116.421" r="3.032" fx="124.44" fy="116.421" gradientTransform="matrix(3.12505 0 -1.7308 4.37967 -3.303 -290.22)" gradientUnits="userSpaceOnUse" xlink:href="#innoGrad1"/>
        <radialGradient id="radialGradient13826" cx="93.527" cy="107.381" r="3.353" fx="93.527" fy="107.381" gradientTransform="matrix(2.60873 0 0 2.53658 -36.052 -46.88)" gradientUnits="userSpaceOnUse" xlink:href="#innoGrad2"/>
        <radialGradient id="radialGradient13834" cx="353.723" cy="405.805" r="12.535" fx="353.723" fy="405.805" gradientTransform="matrix(.76322 0 0 .72949 -61.226 -71.089)" gradientUnits="userSpaceOnUse" xlink:href="#innoGrad1"/>
        <radialGradient id="radialGradient13842" cx="346.226" cy="403.619" r="14.64" fx="346.226" fy="403.619" gradientTransform="matrix(.5056 0 0 .49581 35.229 24.192)" gradientUnits="userSpaceOnUse" xlink:href="#innoGrad1"/>
        <radialGradient id="radialGradient3362" cx="54.24" cy="66.049" r="12.528" fx="54.24" fy="66.049" gradientTransform="matrix(2.84203 0 0 1.24636 -19.49 9.317)" gradientUnits="userSpaceOnUse" xlink:href="#innoGrad2"/>
        <radialGradient id="radialGradient4830" cx="62.119" cy="74.536" r="12.528" fx="62.119" fy="74.536" gradientTransform="matrix(2.84203 0 0 -1.33084 -20.878 239.46)" gradientUnits="userSpaceOnUse" xlink:href="#innoGrad2"/>
    </defs>
    <g transform="translate(-23.925 -54.57)">
        <path style="font-variation-settings:normal" fill="url(#radialGradient4664)" stroke="#000" stroke-width=".918" d="M118.388 177.308l-45.398 6.445s.328-65.582.28-65.444c0 0 39.143-43.124 77.3-44.034 38.155-.91 78.792 44.886 78.792 44.886l-.28 64.589-46.24-5.052c-4.482-.49 14.018-31.34-21.858-34.034-46.683-3.506-38.499 32.062-42.596 32.644z"/>
        <use width="100%" height="100%" transform="translate(110.134 -.28)" xlink:href="#rect10832"/>
        <path style="font-variation-settings:normal" id="rect10832" fill="url(#radialGradient10862)" fill-opacity="1" fill-rule="evenodd" stroke="#000" stroke-dasharray="none" stroke-dashoffset="0" stroke-linecap="butt" stroke-linejoin="miter" stroke-miterlimit="4" stroke-opacity="1" stroke-width=".284" d="M71.587 119.859h47.361v64.175H71.587z" opacity="1" stop-color="#000" stop-opacity="1"/>
        <path style="font-variation-settings:normal" fill="url(#radialGradient4268)" stroke="#000" stroke-width=".853" d="M72.97 244.562c.026 3.724-3.777 24.592 16.534 39.57 20.311 14.977 74.75 19.014 104.8 3.901 30.052-15.113 33.87-39.854 33.917-46.58l.841-117.786s-51.126 49.682-83.23 49.266c-33.45-.433-73.702-50.657-73.702-50.657z"/>
        <path style="font-variation-settings:normal" fill="url(#radialGradient3210)" stroke="#000" stroke-width=".853" d="M118.948 119.86h-47.36c.097 0 12.658-32.24 38.392-45.108 25.734-12.867 75.528-14.835 97.368.26 21.84 15.096 21.174 44.567 21.174 44.567h-46.52s7.84-23.279-20.457-26.342c-42.078-4.556-42.597 26.622-42.597 26.622z"/>
        <path style="font-variation-settings:normal" fill="url(#radialGradient4260)" stroke="#000" stroke-width=".853" d="M72.13 121.155s-7.08 39.472 22.347 55.71c29.426 16.237 68.038 14.698 98.09-.287 30.052-14.984 42.344-55.679 35.675-55.598l-45.96.56s-3.254 31.664-35.358 31.252c-33.451-.43-27.696-31.531-27.696-31.531z"/>
        <g id="g12519">
            <path fill="url(#radialGradient11913)" stroke="#000" stroke-width=".568" d="M192.81 207.61a9.244 9.194 0 011.9 5.584 9.244 9.194 0 01-9.244 9.193 9.244 9.194 0 01-8.879-6.654 8.436 14.917 33.525 00-1.983 3.93 8.436 14.917 33.525 004.226 13.28 8.436 14.917 33.525 0014.725-13.28 8.436 14.917 33.525 00-.745-12.053z" transform="rotate(-10.052 101.723 111.683)"/>
            <g>
                <path fill="url(#radialGradient13826)" stroke-width=".264" d="M213.532 219.145c-1.783.298-4.218.917-7.007 2.193-4.188 1.917-6.262 4.31-7.096 5.5a8.372 8.617 90 008.507 7.036 8.372 8.617 90 008.617-8.372 8.372 8.617 90 00-3.02-6.357z" transform="matrix(.9125 -.16052 .16176 .90552 -24.749 27.209)"/>
                <path fill="url(#radialGradient13842)" stroke="#000" stroke-width=".189" d="M214.065 219.064c-1.815.26-4.459.864-7.54 2.274a22.01 22.01 0 00-2.626 1.42l1.522 1.883-1.646 3.377 3.816.01 1.358 3.158 2.243-2.752 4.176.864-.838-3.65 2.977-2.342-3.435-1.634z" transform="matrix(.9125 -.16052 .16176 .90552 -24.749 27.209)"/>
                <path fill="url(#radialGradient13834)" stroke="#000" stroke-width=".286" d="M215.712 218.896c-.652.037-2.352.349-3.578.59l.739 3.097 3.486 1.634-3.024 2.34.851 3.652-3.778-.824-2.424 2.92-1.69-3.367-3.874-.012 1.67-3.376-1.533-1.868c-1.564 1.187-2.522 2.313-3.05 3.047.89 4.197 4.751 7.215 9.234 7.215 5.204 0 9.423-4.03 9.423-9.002-.003-2.236-.877-4.392-2.452-6.046z" transform="matrix(.9125 -.16052 .16176 .90552 -24.749 27.209)"/>
            </g>
        </g>
        <use width="100%" height="100%" stroke="#181c2a" transform="matrix(-1.08846 -.15421 -.17946 .93534 357.76 45.827)" xlink:href="#g12519"/>
        <path style="-inkscape-stroke:none" fill="url(#radialGradient3362)" d="M157.74 90.589c-8.735-1.046-18.067 1.45-24.597 3.903-6.963 2.615-11.09 8.733-13.636 14.28-2.546 5.548-3.015 10.558-3.015 10.558s2.56.002 2.882.282c.624.542 1.243 2.107 1.243 2.107s1.404-6.37 3.56-11.068c2.156-4.698 7.142-10.565 10.3-11.751 5.259-1.976 13.024-3.614 20.742-3.574 7.718.04 15.775 1.833 19.104 4.846.902.816 5.003 5.458 5.552 9.433.549 3.974 1.11 11.418 1.11 11.418s.213-1.197.766-1.637c.336-.27 3.255-.333 3.255-.333s1.065-4.124.42-8.797c-.645-4.673-3.183-9.34-7.413-13.169-6.008-5.438-12.68-5.59-20.272-6.498z" color="#000"/>
        <path style="-inkscape-stroke:none" fill="url(#radialGradient4830)" d="M157.74 153.175c-8.735 1.116-19.904-.091-26.434-2.71-6.963-2.794-11.284-11.041-13.186-17.202-1.916-6.204-.528-11.518-.528-11.518s1.815-.053 2.102-.032c.84.062-.812 5.719 1.345 10.735 2.156 5.017 4.41 11.05 10.51 14.72 7.409 4.458 15.826 3.228 23.544 3.186 7.718-.042 14.164-5.391 17.492-8.608.902-.872 4.513-5.127 5.903-9.371 1.331-4.067 1.804-9.22 1.804-9.22l1.279-1.224 1.873.055s-.702 3.367-1.348 8.357c-.645 4.99-2.526 8.819-6.755 12.906-6.008 5.807-10.007 8.956-17.6 9.926z" color="#000"/>
        <use width="100%" height="100%" transform="translate(-1.49 48.821)" xlink:href="#g12519"/>
        <use width="100%" height="100%" stroke="#181c2a" transform="matrix(-1.08846 -.15421 -.17946 .93534 358.879 93.903)" xlink:href="#g12519"/>
    </g>
</svg>
