<svg xmlns="http://www.w3.org/2000/svg" xmlns:xlink="http://www.w3.org/1999/xlink" viewBox="0 0 256 256">
    <defs>
        <linearGradient id="innoGrad1">
            <stop offset="0" stop-color="#f55"/>
            <stop offset="1" stop-color="#ff2a2a"/>
        </linearGradient>
        <linearGradient id="innoGrad2">
            <stop offset="0" stop-color="#faa"/>
            <stop offset="1" stop-color="#ff8080"/>
        </linearGradient>
        <radialGradient id="radialGradient3210" cx="83.242" cy="66.493" r="27.865" fx="83.242" fy="66.493" gradientTransform="matrix(1.68019 .0861 -.07403 1.44458 72.922 -8.477)" gradientUnits="userSpaceOnUse" xlink:href="#innoGrad2"/>
        <radialGradient id="radialGradient4260" cx="55.887" cy="89.428" r="28.108" fx="55.887" fy="89.428" gradientTransform="matrix(3.03708 -1.28044 .57832 1.37172 -61.496 133.23)" gradientUnits="userSpaceOnUse" xlink:href="#innoGrad2"/>
        <radialGradient id="radialGradient4268" cx="47.812" cy="115.682" r="28.108" fx="47.812" fy="115.682" gradientTransform="matrix(.74454 -.00668 .02438 2.89137 148.592 -88.29)" gradientUnits="userSpaceOnUse" xlink:href="#innoGrad2"/>
        <radialGradient id="radialGradient4664" cx="69.033" cy="62.025" r="27.865" fx="69.033" fy="62.025" gradientTransform="matrix(.83094 -.02054 .04839 1.95785 71.405 18.707)" gradientUnits="userSpaceOnUse" xlink:href="#innoGrad2"/>
        <radialGradient id="radialGradient10862" cx="40.379" cy="93.429" r="8.332" fx="40.379" fy="93.429" gradientTransform="matrix(3.4761 0 0 4.7102 -55.322 -262.902)" gradientUnits="userSpaceOnUse" xlink:href="#innoGrad1"/>
        <radialGradient id="radialGradient11913" cx="124.44" cy="116.421" r="3.032" fx="124.44" fy="116.421" gradientTransform="matrix(3.82224 0 -2.11693 5.35677 -38.222 -365.432)" gradientUnits="userSpaceOnUse" xlink:href="#innoGrad1"/>
        <radialGradient id="radialGradient13826" cx="93.527" cy="107.381" r="3.353" fx="93.527" fy="107.381" gradientTransform="matrix(3.19074 0 0 3.1025 -82.918 -67.102)" gradientUnits="userSpaceOnUse" xlink:href="#innoGrad2"/>
        <radialGradient id="radialGradient13834" cx="353.723" cy="405.805" r="12.535" fx="353.723" fy="405.805" gradientTransform="matrix(.9335 0 0 .89224 -113.708 -96.712)" gradientUnits="userSpaceOnUse" xlink:href="#innoGrad1"/>
        <radialGradient id="radialGradient13842" cx="346.226" cy="403.619" r="14.64" fx="346.226" fy="403.619" gradientTransform="matrix(.6184 0 0 .60643 4.266 19.826)" gradientUnits="userSpaceOnUse" xlink:href="#innoGrad1"/>
        <radialGradient id="radialGradient3362" cx="54.24" cy="66.049" r="12.528" fx="54.24" fy="66.049" gradientTransform="matrix(3.4761 0 0 1.52442 -55.322 2.716)" gradientUnits="userSpaceOnUse" xlink:href="#innoGrad2"/>
        <radialGradient id="radialGradient4830" cx="62.119" cy="74.536" r="12.528" fx="62.119" fy="74.536" gradientTransform="matrix(3.4761 0 0 -1.62775 -57.019 284.204)" gradientUnits="userSpaceOnUse" xlink:href="#innoGrad2"/>
    </defs>
    <g transform="translate(-23.925 -54.57)">
        <path style="font-variation-settings:normal" fill="url(#radialGradient4664)" stroke="#000" stroke-width="1.123" d="M113.317 208.186l-55.526 7.883s.401-80.214.342-80.045c0 0 47.876-52.745 94.545-53.858 46.668-1.113 96.371 54.9 96.371 54.9l-.343 78.999-56.555-6.179c-5.482-.599 17.145-38.331-26.735-41.627-57.098-4.288-47.087 39.215-52.099 39.927z"/>
        <use width="100%" height="100%" transform="translate(134.705 -.343)" xlink:href="#rect10832"/>
        <path style="font-variation-settings:normal" id="rect10832" fill="url(#radialGradient10862)" fill-opacity="1" fill-rule="evenodd" stroke="#000" stroke-dasharray="none" stroke-dashoffset="0" stroke-linecap="butt" stroke-linejoin="miter" stroke-miterlimit="4" stroke-opacity="1" stroke-width=".348" d="M56.075 137.921h57.927v78.492H56.075z" opacity="1" stop-color="#000" stop-opacity="1"/>
        <path style="font-variation-settings:normal" fill="url(#radialGradient4268)" stroke="#000" stroke-width="1.043" d="M57.767 223.948c.056 4.556-4.62 30.079 20.223 48.398 24.842 18.319 91.425 23.256 128.18 4.772 36.757-18.485 41.375-48.746 41.485-56.973l1.028-77.567s-62.533 60.766-101.8 60.257c-40.913-.53-90.144-61.96-90.144-61.96z"/>
        <path style="font-variation-settings:normal" fill="url(#radialGradient3210)" stroke="#000" stroke-width="1.043" d="M114.002 137.92H56.075c.12 0 15.484-39.432 46.959-55.17 31.475-15.737 92.378-18.145 119.09.319 26.712 18.463 25.898 54.509 25.898 54.509h-56.898s9.588-28.472-25.022-32.22c-51.465-5.572-52.1 32.563-52.1 32.563z"/>
        <path style="font-variation-settings:normal" fill="url(#radialGradient4260)" stroke="#000" stroke-width="1.043" d="M56.739 139.505s-8.66 48.278 27.332 68.138c35.992 19.86 83.218 17.978 119.974-.35 36.757-18.327 51.791-68.1 43.634-68.001l-56.213.685s-3.98 38.728-43.246 38.223c-40.915-.525-33.875-38.565-33.875-38.565z"/>
        <g id="g12519" display="inline">
            <path fill="url(#radialGradient11913)" stroke="#000" stroke-width=".695" d="M201.644 243.465a11.307 11.245 0 012.323 6.83 11.307 11.245 0 01-11.306 11.244 11.307 11.245 0 01-10.86-8.139 10.317 18.245 33.525 00-2.425 4.806 10.317 18.245 33.525 005.169 16.244 10.317 18.245 33.525 0018.01-16.244 10.317 18.245 33.525 00-.91-14.741z" transform="rotate(-10.052 101.723 111.683)"/>
            <g>
                <path fill="url(#radialGradient13826)" stroke-width=".323" d="M222.349 258.273c-2.181.365-5.16 1.12-8.57 2.682-5.123 2.345-7.66 5.27-8.68 6.726a10.24 10.54 90 0010.405 8.607 10.24 10.54 90 0010.54-10.24 10.24 10.54 90 00-3.695-7.775z" transform="matrix(.9125 -.16052 .16176 .90552 -24.749 27.209)"/>
                <path fill="url(#radialGradient13842)" stroke="#000" stroke-width=".231" d="M223 258.174c-2.22.317-5.453 1.056-9.221 2.781a26.92 26.92 0 00-3.212 1.738l1.862 2.302-2.014 4.13 4.667.012 1.66 3.862 2.744-3.365 5.109 1.056-1.026-4.464 3.642-2.864-4.201-1.998z" transform="matrix(.9125 -.16052 .16176 .90552 -24.749 27.209)"/>
                <path fill="url(#radialGradient13834)" stroke="#000" stroke-width=".35" d="M225.015 257.968c-.797.045-2.877.427-4.377.721l.904 3.79 4.264 1.997-3.698 2.862 1.04 4.467-4.62-1.008-2.966 3.571-2.067-4.118-4.738-.014 2.043-4.13-1.874-2.284c-1.913 1.451-3.085 2.829-3.732 3.727 1.088 5.134 5.812 8.824 11.294 8.824 6.365 0 11.525-4.929 11.525-11.01-.003-2.735-1.072-5.371-2.998-7.395z" transform="matrix(.9125 -.16052 .16176 .90552 -24.749 27.209)"/>
            </g>
        </g>
        <use width="100%" height="100%" stroke="#181c2a" transform="matrix(-1.08678 -.15233 -.17918 .9239 365.847 51.811)" xlink:href="#g12519"/>
        <path style="-inkscape-stroke:none" fill="url(#radialGradient3362)" d="M161.45 102.12c-10.685-1.28-22.1 1.773-30.086 4.773-8.517 3.2-13.564 10.682-16.678 17.467-3.114 6.785-3.687 12.913-3.687 12.913s3.13.003 3.524.345c.764.663 1.52 2.577 1.52 2.577s1.718-7.791 4.355-13.537c2.637-5.746 8.735-12.922 12.598-14.373 6.432-2.416 15.93-4.42 25.37-4.371 9.44.048 19.294 2.242 23.365 5.927 1.103.998 6.12 6.676 6.79 11.537.672 4.861 1.36 13.965 1.36 13.965s.26-1.463.935-2.002c.412-.328 3.982-.406 3.982-.406s1.303-5.045.513-10.76c-.789-5.716-3.893-11.425-9.066-16.107-7.349-6.651-15.508-6.837-24.795-7.949z" color="#000"/>
        <path style="-inkscape-stroke:none" fill="url(#radialGradient4830)" d="M161.45 178.669c-10.685 1.365-24.346-.111-32.332-3.315-8.517-3.416-13.802-13.504-16.129-21.04-2.343-7.587-.645-14.088-.645-14.088s2.22-.064 2.57-.038c1.029.076-.992 6.995 1.645 13.13 2.638 6.136 5.394 13.514 12.855 18.004 9.062 5.453 19.358 3.948 28.798 3.896 9.44-.051 17.323-6.593 21.394-10.527 1.103-1.067 5.52-6.272 7.22-11.463 1.628-4.974 2.206-11.276 2.206-11.276l1.564-1.498 2.291.068s-.859 4.118-1.648 10.221c-.79 6.104-3.09 10.787-8.263 15.786-7.348 7.102-12.24 10.953-21.526 12.14z" color="#000"/>
    </g>
</svg>
