<?xml version="1.0" encoding="UTF-8" standalone="no"?>
<!-- Created with Inkscape (http://www.inkscape.org/) -->

<svg
   width="256"
   height="256"
   viewBox="0 0 256 256"
   version="1.1"
   id="svg5"
   inkscape:version="1.1 (c68e22c387, 2021-05-23)"
   sodipodi:docname="cock_ring.svg"
   xmlns:inkscape="http://www.inkscape.org/namespaces/inkscape"
   xmlns:sodipodi="http://sodipodi.sourceforge.net/DTD/sodipodi-0.dtd"
   xmlns:xlink="http://www.w3.org/1999/xlink"
   xmlns="http://www.w3.org/2000/svg"
   xmlns:svg="http://www.w3.org/2000/svg">
  <sodipodi:namedview
     id="namedview7"
     pagecolor="#ffffff"
     bordercolor="#666666"
     borderopacity="1.0"
     inkscape:pageshadow="2"
     inkscape:pageopacity="0.0"
     inkscape:pagecheckerboard="0"
     inkscape:document-units="px"
     showgrid="false"
     inkscape:snap-global="false"
     inkscape:zoom="1.3416246"
     inkscape:cx="505.73014"
     inkscape:cy="50.312137"
     inkscape:window-width="1920"
     inkscape:window-height="1017"
     inkscape:window-x="1912"
     inkscape:window-y="-8"
     inkscape:window-maximized="1"
     inkscape:current-layer="layer1"
     fit-margin-top="8"
     fit-margin-left="8"
     fit-margin-right="8"
     fit-margin-bottom="8"
     width="256mm"
     showborder="true"
     units="px" />
  <defs
     id="defs2">
    <linearGradient
       inkscape:collect="always"
       id="innoGrad1">
      <stop
         style="stop-color:#ff5555;stop-opacity:1"
         offset="0"
         id="stop10864" />
      <stop
         style="stop-color:#ff2a2a;stop-opacity:1"
         offset="1"
         id="stop10866" />
    </linearGradient>
    <linearGradient
       id="linearGradient957"
       x1="-28.052"
       x2="-6.2919998"
       y1="112.021"
       y2="77.704002"
       gradientTransform="matrix(0.09658514,0.00110251,-0.00110251,0.09658514,153.56567,75.248848)"
       gradientUnits="userSpaceOnUse"
       xlink:href="#innoGrad0" />
    <linearGradient
       id="innoGrad0">
      <stop
         offset="0"
         stop-color="#ffd5d5"
         id="stop7" />
      <stop
         offset="1"
         stop-color="#faa"
         id="stop9" />
    </linearGradient>
    <radialGradient
       inkscape:collect="always"
       xlink:href="#innoGrad1"
       id="radialGradient1022"
       cx="319.48938"
       cy="-40.496037"
       fx="319.48938"
       fy="-40.496037"
       r="60.083984"
       gradientTransform="matrix(0.81950138,0.72411213,-1.9232927,2.1766534,-271.83822,-18.388048)"
       gradientUnits="userSpaceOnUse" />
  </defs>
  <g
     inkscape:label="Layer 1"
     id="layer1"
     transform="translate(-19.271583,-51.586183)">
    <path
       id="path887"
       style="fill:url(#radialGradient1022);fill-opacity:1;stroke:#000000;stroke-width:1.33795;stroke-miterlimit:4;stroke-dasharray:none;stroke-opacity:1;stop-color:#000000"
       d="m 147.75876,65.119647 c -54.780251,1.5e-5 -99.188396,50.637373 -99.188373,113.101713 -2.8e-5,62.46433 44.408119,113.10169 99.188373,113.10171 54.78024,0 99.1884,-50.63738 99.18838,-113.10171 2e-5,-62.46434 -36.32945,-113.999338 -99.18838,-113.101713 z m 8.32931,37.191563 c 25.17279,9.8e-4 55.77926,39.61378 55.77902,75.11054 -9.4e-4,45.18533 -20.32427,75.25085 -54.44056,75.25185 -34.11629,-9.4e-4 -60.129922,-30.06652 -60.130909,-75.25185 -2.51e-4,-45.1865 24.675269,-75.10957 58.792449,-75.11054 z"
       sodipodi:nodetypes="ccsccccccc" />
    <path
       style="font-variation-settings:normal;opacity:1;vector-effect:none;fill:#ffffff;fill-opacity:0.708543;stroke:none;stroke-width:1.03636;stroke-linecap:butt;stroke-linejoin:miter;stroke-miterlimit:4;stroke-dasharray:none;stroke-dashoffset:0;stroke-opacity:0.766129;-inkscape-stroke:none;stop-color:#000000;stop-opacity:1"
       d="m 105.12116,110.45082 c 0.0444,6.11719 -13.59569,31.34161 -14.810935,59.24374 -1.215247,27.90212 6.029964,33.12319 6.732243,48.47212 0.702276,15.34895 -18.339745,-15.0237 -17.055017,-47.12568 1.284728,-32.10196 25.089279,-66.70735 25.133709,-60.59018 z"
       id="path1369"
       sodipodi:nodetypes="zzzzz" />
    <path
       style="font-variation-settings:normal;vector-effect:none;fill:#ffffff;fill-opacity:0.708543;stroke:none;stroke-width:0.71287;stroke-linecap:butt;stroke-linejoin:miter;stroke-miterlimit:4;stroke-dasharray:none;stroke-dashoffset:0;stroke-opacity:0.766129;-inkscape-stroke:none;stop-color:#000000"
       d="m 228.06571,224.66524 c -0.0287,-4.49614 11.22059,-22.81169 12.00289,-43.31978 0.7823,-20.50807 -3.88174,-32.42428 -4.10942,-38.09553 -0.22766,-5.67126 7.31789,14.85737 6.49085,38.45235 -0.82703,23.59493 -14.35571,47.4591 -14.38432,42.96296 z"
       id="path1369-8"
       sodipodi:nodetypes="zzzzz" />
    <path
       style="font-variation-settings:normal;vector-effect:none;fill:#ffffff;fill-opacity:0.708543;stroke:none;stroke-width:0.412428;stroke-linecap:butt;stroke-linejoin:miter;stroke-miterlimit:4;stroke-dasharray:none;stroke-dashoffset:0;stroke-opacity:0.766129;-inkscape-stroke:none;stop-color:#000000"
       d="m 156.9234,266.80196 c 2.13163,-1.2687 11.74184,-1.02893 21.62259,-6.26515 9.88076,-5.23626 13.14755,-8.22192 18.43047,-11.63461 5.28292,-3.4127 -6.96888,9.23613 -18.32428,15.30456 -11.35536,6.06845 -23.86044,3.86386 -21.72878,2.5952 z"
       id="path3047"
       sodipodi:nodetypes="zzzzz" />
    <path
       style="font-variation-settings:normal;vector-effect:none;fill:#ffffff;fill-opacity:0.708543;stroke:none;stroke-width:0.426974;stroke-linecap:butt;stroke-linejoin:miter;stroke-miterlimit:4;stroke-dasharray:none;stroke-dashoffset:0;stroke-opacity:0.766129;-inkscape-stroke:none;stop-color:#000000"
       d="m 136.08238,69.952382 c 2.37008,0.8807 19.73352,-0.663788 31.07903,2.013873 11.34551,2.677661 27.35473,10.135628 24.6814,7.414101 -2.67332,-2.721525 -14.45024,-7.593706 -24.05896,-10.384136 -9.6087,-2.79043 -34.07155,0.07551 -31.70147,0.956162 z"
       id="path3047-4"
       sodipodi:nodetypes="zzzzz" />
  </g>
</svg>
