<?xml version="1.0" encoding="UTF-8" standalone="no"?>
<svg
   cursor="default"
   viewBox="0 0 256 256"
   version="1.1"
   id="svg1093"
   sodipodi:docname="Penis_Plug_M.svg"
   inkscape:version="1.1 (c68e22c387, 2021-05-23)"
   xmlns:inkscape="http://www.inkscape.org/namespaces/inkscape"
   xmlns:sodipodi="http://sodipodi.sourceforge.net/DTD/sodipodi-0.dtd"
   xmlns:xlink="http://www.w3.org/1999/xlink"
   xmlns="http://www.w3.org/2000/svg"
   xmlns:svg="http://www.w3.org/2000/svg">
  <sodipodi:namedview
     id="namedview1095"
     pagecolor="#ffffff"
     bordercolor="#666666"
     borderopacity="1.0"
     inkscape:pageshadow="2"
     inkscape:pageopacity="0.0"
     inkscape:pagecheckerboard="0"
     showgrid="false"
     inkscape:zoom="2.0798883"
     inkscape:cx="-75.965619"
     inkscape:cy="202.17432"
     inkscape:window-width="1920"
     inkscape:window-height="1017"
     inkscape:window-x="1912"
     inkscape:window-y="-8"
     inkscape:window-maximized="1"
     inkscape:current-layer="g6596"
     inkscape:snap-global="false" />
  <defs
     id="defs1041">
    <linearGradient
       id="innoGrad1">
      <stop
         offset="0"
         stop-color="#ff8080"
         id="stop1010" />
      <stop
         offset="1"
         stop-color="#faa"
         id="stop1012" />
    </linearGradient>
    <linearGradient
       id="innoGrad0">
      <stop
         offset="0"
         stop-color="#ffd5d5"
         id="stop1015" />
      <stop
         offset="1"
         stop-color="#faa"
         id="stop1017" />
    </linearGradient>
    <linearGradient
       id="linearGradient933"
       x1="31.854"
       x2="7.03"
       y1="303.099"
       y2="303.483"
       gradientTransform="matrix(0.36506441,0.00201981,-0.00201981,0.36506441,69.632001,98.332403)"
       gradientUnits="userSpaceOnUse"
       xlink:href="#innoGrad0" />
    <linearGradient
       id="linearGradient941"
       x1="123.387"
       x2="-49.997"
       y1="177.782"
       y2="190.438"
       gradientTransform="rotate(.317 -32626.609 28345.214) scale(.36507)"
       gradientUnits="userSpaceOnUse"
       xlink:href="#innoGrad0" />
    <linearGradient
       id="linearGradient949"
       x1="69.351"
       x2="-15.907"
       y1="-261.749"
       y2="305.55"
       gradientTransform="rotate(.654 -12760.1 11188.865) scale(.36507)"
       gradientUnits="userSpaceOnUse"
       xlink:href="#innoGrad0" />
    <linearGradient
       id="linearGradient957"
       x1="-28.052"
       x2="-6.292"
       y1="112.021"
       y2="77.704"
       gradientTransform="rotate(.654 -12760.1 11188.865) scale(.36507)"
       gradientUnits="userSpaceOnUse"
       xlink:href="#innoGrad0" />
    <linearGradient
       id="linearGradient965"
       x1="73.463"
       x2="46.91"
       y1="120.94"
       y2="80.287"
       gradientTransform="rotate(.654 -12760.1 11188.865) scale(.36507)"
       gradientUnits="userSpaceOnUse"
       xlink:href="#innoGrad0" />
    <linearGradient
       id="linearGradient973"
       x1="145.207"
       x2="72.573"
       y1="26.438"
       y2="40.628"
       gradientTransform="matrix(0.98626563,0.01125816,-0.01125816,0.98626563,130.29465,123.53387)"
       gradientUnits="userSpaceOnUse"
       xlink:href="#innoGrad1" />
    <linearGradient
       id="linearGradient981"
       x1="31.009029"
       x2="96.746605"
       y1="49.138218"
       y2="41.126316"
       gradientTransform="matrix(0.98626563,0.01125816,-0.01125816,0.98626563,130.29465,123.53387)"
       gradientUnits="userSpaceOnUse"
       xlink:href="#innoGrad0" />
    <linearGradient
       id="linearGradient989"
       x1="5.15"
       x2="-98.947"
       y1="21.105"
       y2="9.016"
       gradientTransform="rotate(.654 -12760.1 11188.865) scale(.36507)"
       gradientUnits="userSpaceOnUse"
       xlink:href="#innoGrad1" />
    <linearGradient
       id="linearGradient997"
       x1="-30.807"
       x2="-138.179"
       y1="24.421"
       y2="10.998"
       gradientTransform="rotate(.654 -12760.1 11188.865) scale(.36507)"
       gradientUnits="userSpaceOnUse"
       xlink:href="#innoGrad0" />
    <linearGradient
       id="linearGradient1005"
       x1="-30.807"
       x2="-138.946"
       y1="24.421"
       y2="5.629"
       gradientTransform="rotate(11.834 -493.115 617.755) scale(.36507)"
       gradientUnits="userSpaceOnUse"
       xlink:href="#innoGrad0" />
    <linearGradient
       id="linearGradient1013"
       x1="-30.807"
       x2="-138.946"
       y1="24.421"
       y2="5.629"
       gradientTransform="rotate(-11.438 873.45 -562.376) scale(.36507)"
       gradientUnits="userSpaceOnUse"
       xlink:href="#innoGrad0" />
    <linearGradient
       id="linearGradient1021"
       x1="-8.703"
       x2="-70.714"
       y1="-122.58"
       y2="-155.563"
       gradientTransform="rotate(-11.438 873.45 -562.376) scale(.36507)"
       gradientUnits="userSpaceOnUse"
       xlink:href="#innoGrad1" />
    <linearGradient
       id="linearGradient1023"
       x1="5.15"
       x2="-98.947"
       y1="21.105"
       y2="9.016"
       gradientTransform="rotate(11.834 -493.115 617.755) scale(.36507)"
       gradientUnits="userSpaceOnUse"
       xlink:href="#innoGrad1" />
    <linearGradient
       id="linearGradient1031"
       x1="118.975"
       x2="-3.984"
       y1="-138.516"
       y2="-111.67"
       gradientTransform="rotate(.654 -12760.1 11188.865) scale(.36507)"
       gradientUnits="userSpaceOnUse"
       xlink:href="#innoGrad0" />
    <linearGradient
       id="linearGradient1039"
       x1="118.975"
       x2="-3.984"
       y1="-138.516"
       y2="-111.67"
       gradientTransform="rotate(.654 -12760.1 11188.865) scale(.36507)"
       gradientUnits="userSpaceOnUse"
       xlink:href="#innoGrad0" />
    <linearGradient
       id="linearGradient1047"
       x1="29.978"
       x2="131.939"
       y1="-23.423"
       y2="-53.72"
       gradientTransform="rotate(.654 -12760.1 11188.865) scale(.36507)"
       gradientUnits="userSpaceOnUse"
       xlink:href="#innoGrad1" />
    <linearGradient
       id="linearGradient1055"
       x1="105.175"
       x2="105.444"
       y1="-72.1"
       y2="-61.558"
       gradientUnits="userSpaceOnUse"
       xlink:href="#innoGrad0" />
    <linearGradient
       id="linearGradient1063"
       x1="135.076"
       x2="135.216"
       y1="-39.646"
       y2="-26.43"
       gradientUnits="userSpaceOnUse"
       xlink:href="#innoGrad0" />
    <linearGradient
       id="linearGradient1073"
       x1="115.424"
       x2="123.584"
       y1="40.835"
       y2="41.038"
       gradientUnits="userSpaceOnUse"
       xlink:href="#innoGrad1" />
    <linearGradient
       id="linearGradient1089"
       x1="139.009"
       x2="103.963"
       y1="23.151"
       y2="38.744"
       gradientUnits="userSpaceOnUse"
       xlink:href="#innoGrad0"
       gradientTransform="translate(83.293494)" />
    <linearGradient
       id="linearGradient892"
       x1="135.076"
       x2="135.216"
       y1="-39.646"
       y2="-26.43"
       gradientTransform="translate(38.426683,43.376557)"
       gradientUnits="userSpaceOnUse"
       xlink:href="#innoGrad0" />
    <linearGradient
       inkscape:collect="always"
       xlink:href="#innoGrad1"
       id="linearGradient1184"
       gradientUnits="userSpaceOnUse"
       x1="135.09314"
       y1="39.791122"
       x2="122.63663"
       y2="37.189304"
       gradientTransform="matrix(2.7017554,0,0,2.7017554,-126.43442,23.572705)" />
    <linearGradient
       inkscape:collect="always"
       xlink:href="#innoGrad0"
       id="linearGradient2670"
       gradientUnits="userSpaceOnUse"
       gradientTransform="matrix(1.748677,3.884656e-8,-3.6916251e-8,1.7952161,47.05554,58.050574)"
       x1="125.67352"
       y1="-29.99481"
       x2="142.27055"
       y2="-33.259212" />
    <linearGradient
       inkscape:collect="always"
       xlink:href="#innoGrad0"
       id="linearGradient12784"
       x1="208.91945"
       y1="273.78506"
       x2="241.39349"
       y2="267.48819"
       gradientUnits="userSpaceOnUse"
       gradientTransform="matrix(0.8527288,0,0,0.8527288,31.91956,27.726943)" />
    <linearGradient
       inkscape:collect="always"
       xlink:href="#innoGrad0"
       id="linearGradient13185"
       gradientUnits="userSpaceOnUse"
       x1="205.64725"
       y1="213.90689"
       x2="233.90738"
       y2="210.56969"
       gradientTransform="matrix(0.8527288,0,0,0.8527288,31.91956,27.726943)" />
  </defs>
  <g
     id="g6596"
     transform="rotate(51.575356,223.07615,58.717967)"
     inkscape:groupmode="layer">
    <path
       fill="url(#linearGradient973)"
       stroke="#000000"
       stroke-width="0.986137"
       d="m 157.84988,161.53105 c 4.02022,-18.91769 77.01999,-35.88938 89.55343,-21.17291 2.21545,-4.27147 6.09049,-10.48444 0.20878,-13.56174 -15.05958,-9.47504 -77.06936,0.43316 -92.10193,17.34345 -6.06273,6.43828 -5.27651,15.74853 2.33972,17.3912 z"
       id="path1063"
       style="fill:url(#linearGradient973);stroke-width:0.4;stroke-miterlimit:4;stroke-dasharray:none"
       sodipodi:nodetypes="ccccc" />
    <ellipse
       cx="283.48895"
       cy="0.47083032"
       fill="url(#linearGradient892)"
       stroke="#000000"
       stroke-linecap="round"
       stroke-width="0.712261"
       rx="14.692386"
       ry="15.182143"
       transform="matrix(0.88348416,0.46846103,-0.29207292,0.95639605,0,0)"
       id="ellipse1051-2"
       style="fill:url(#linearGradient2670);stroke-width:0.403693;stroke-miterlimit:4;stroke-dasharray:none" />
    <path
       style="font-variation-settings:normal;opacity:1;fill:url(#linearGradient12784);fill-opacity:1;stroke:#000000;stroke-width:0.341092;stroke-linecap:butt;stroke-linejoin:miter;stroke-miterlimit:4;stroke-dasharray:none;stroke-dashoffset:0;stroke-opacity:1;stop-color:#000000;stop-opacity:1"
       d="m 198.45341,224.5416 c 7.12917,30.48781 21.41287,69.8551 35.46344,85.69103 4.64613,5.23651 13.65265,1.56886 13.70999,-5.43144 0.19002,-23.19569 -1.44585,-58.02047 -7.00261,-87.64075 -5.47709,-29.19557 -46.36388,-10.55037 -42.17082,7.38116 z"
       id="path12099"
       sodipodi:nodetypes="sssss" />
    <path
       style="font-variation-settings:normal;opacity:1;fill:url(#linearGradient13185);fill-opacity:1;stroke:#000000;stroke-width:0.341092;stroke-linecap:butt;stroke-linejoin:miter;stroke-miterlimit:4;stroke-dasharray:none;stroke-dashoffset:0;stroke-opacity:1;stop-color:#000000;stop-opacity:1"
       d="m 209.59012,199.26478 c -7.39074,4.83915 -12.85749,16.27534 -10.95654,25.04971 1.46986,6.78454 41.91249,-5.475 39.0307,-15.1372 -3.97445,-13.32577 -19.81392,-15.32097 -28.07416,-9.91251 z"
       id="path12974"
       sodipodi:nodetypes="ssss" />
    <path
       fill="url(#linearGradient1073)"
       fill-rule="evenodd"
       stroke="#000000"
       stroke-width="1.08611"
       d="m 251.88235,119.71656 c 0.5956,-2.15494 -11.66179,-25.081716 -25.85406,-38.284623 -14.19227,-13.202949 -30.79013,-13.42843 -37.63117,-2.173349 -6.7771,11.149961 17.74594,117.206272 19.20691,123.145402 1.46098,5.93913 13.00299,3.97218 12.04246,-0.94543 -0.96052,-4.91762 -24.18244,-105.028028 -20.33705,-115.235362 3.57552,-9.490993 12.15903,-5.677741 20.98632,4.283227 8.82727,9.961005 20.3561,32.227595 23.25649,32.903355 5.80078,1.35156 7.13893,0.61669 8.3301,-3.69322 z"
       id="path1049-5"
       style="fill:url(#linearGradient1184);stroke-width:0.4;stroke-miterlimit:4;stroke-dasharray:none"
       sodipodi:nodetypes="ssszzssss" />
    <ellipse
       cx="287.12076"
       cy="-0.30701652"
       fill="url(#linearGradient892)"
       stroke="#000000"
       stroke-linecap="round"
       stroke-width="0.42732"
       rx="7.1341577"
       ry="7.0089293"
       transform="matrix(0.87848077,0.47777771,-0.27179273,0.96235581,0,0)"
       id="ellipse11069"
       style="fill:#211e18;fill-opacity:1;stroke-width:0.318552;stroke-miterlimit:4;stroke-dasharray:none" />
    <path
       fill="url(#linearGradient981)"
       stroke="#000000"
       stroke-width="0.986137"
       d="m 155.51016,144.13985 c -5.48186,4.25526 -8.42947,9.78034 -8.1593,15.81877 0.51333,11.56621 10.23966,19.49858 21.00614,21.46544 28.07125,5.13335 65.44479,-7.08386 82.48747,-25.04241 10.25316,-10.80163 9.51996,-23.39889 2.62281,-26.01822 -5.59126,-2.12339 -7.0442,2.82282 -8.27205,8.67009 -2.33018,11.0967 -23.88652,21.91124 -39.27031,24.93991 -15.3946,3.03138 -42.1798,6.40046 -50.97402,-7.31095 -4.34982,-6.7814 0.55926,-12.52263 0.55926,-12.52263 z"
       id="path1081"
       style="display:inline;fill:url(#linearGradient981);stroke-width:0.4;stroke-miterlimit:4;stroke-dasharray:none"
       sodipodi:nodetypes="ccccssccc" />
    <path
       d="m 192.30544,111.73907 c -3.62047,-14.136373 -7.96306,-37.844878 7.44827,-38.115159 -13.43612,8.536961 -7.55038,24.883037 -7.44827,38.115159 z"
       style="fill:#ffffff;fill-opacity:0.756757;stroke-width:0.4;stroke-miterlimit:4;stroke-dasharray:none"
       id="path7914-3"
       sodipodi:nodetypes="ccc" />
    <path
       d="m 183.78625,172.46143 c -13.26168,1.61662 -34.4081,-5.29973 -34.54882,-17.84185 5.79906,15.64158 24.24165,14.7639 34.54882,17.84185 z"
       style="fill:#ffffff;fill-opacity:0.756757;stroke-width:0.4;stroke-miterlimit:4;stroke-dasharray:none"
       id="path7914-5"
       sodipodi:nodetypes="ccc" />
    <path
       d="m 205.62897,223.12989 c -7.95056,-5.06184 -3.68718,-11.54876 0.0307,-17.97579 -2.09587,8.90489 -4.78303,10.92926 -0.0307,17.97579 z"
       style="fill:#ffffff;fill-opacity:0.756757;stroke-width:0.341092;stroke-miterlimit:4;stroke-dasharray:none"
       id="path7914"
       sodipodi:nodetypes="ccc" />
    <path
       d="m 217.98478,268.35116 c -6.24274,-8.14761 -14.72471,-31.22114 -12.63977,-38.38852 1.40925,7.98498 9.15249,30.68029 12.63977,38.38852 z"
       style="fill:#ffffff;fill-opacity:0.756757;stroke-width:0.341092;stroke-miterlimit:4;stroke-dasharray:none"
       id="path7914-6"
       sodipodi:nodetypes="ccc" />
  </g>
</svg>
