<svg xmlns="http://www.w3.org/2000/svg" xmlns:xlink="http://www.w3.org/1999/xlink" width="256" height="256">
    <defs>
        <linearGradient id="innoGrad1">
            <stop offset="0" stop-color="#f55"/>
            <stop offset="1" stop-color="#ff2a2a"/>
        </linearGradient>
        <linearGradient id="innoGrad0">
            <stop offset="0" stop-color="#ffd5d5"/>
            <stop offset="1" stop-color="#faa"/>
        </linearGradient>
        <radialGradient id="radialGradient1022" cx="319.489" cy="-40.496" r="60.084" fx="319.489" fy="-40.496" gradientTransform="matrix(.8195 .72411 -1.9233 2.17665 -271.838 -18.388)" gradientUnits="userSpaceOnUse" xlink:href="#innoGrad1"/>
    </defs>
    <g>
        <path fill="url(#radialGradient1022)" d="M147.759 65.12c-54.78 0-99.189 50.637-99.189 113.101 0 62.465 44.409 113.102 99.189 113.102 54.78 0 99.188-50.637 99.188-113.102 0-62.464-36.33-113.999-99.188-113.101zm11.31 30.483c34.118 0 52.798 36.632 52.798 81.819 0 45.185-19.579 80.468-53.695 80.47-34.116-.002-60.875-35.285-60.876-80.47 0-45.187 27.656-81.818 61.774-81.82z" transform="translate(-19.272 -51.586)"/>
        <path style="font-variation-settings:normal;-inkscape-stroke:none" fill="#fff" fill-opacity=".709" d="M85.85 58.865c.044 6.117-13.596 31.341-14.811 59.243-1.216 27.902 6.03 33.124 6.732 48.472.702 15.35-18.34-15.023-17.055-47.125C62 87.353 85.806 52.747 85.85 58.865zM208.794 173.08c-.029-4.497 11.22-22.813 12.003-43.32.782-20.509-3.882-32.425-4.11-38.096-.227-5.672 7.318 14.857 6.491 38.452s-14.355 47.46-14.384 42.963zM137.652 215.216c2.131-1.269 11.742-1.03 21.622-6.265 9.881-5.237 13.148-8.222 18.43-11.635 5.284-3.413-6.968 9.236-18.323 15.305-11.356 6.068-23.86 3.863-21.73 2.595zM116.81 18.366c2.37.88 19.734-.664 31.08 2.014 11.345 2.678 27.355 10.136 24.681 7.414-2.673-2.721-14.45-7.594-24.059-10.384-9.608-2.79-34.071.076-31.701.956z"/>
    </g>
</svg>
