<svg xmlns="http://www.w3.org/2000/svg" xmlns:xlink="http://www.w3.org/1999/xlink" width="293.43" height="326.121" viewBox="0 0 77.637 86.286">
    <defs>
        <linearGradient id="innoGrad1">
            <stop offset="0" stop-color="#f55"/>
            <stop offset="1" stop-color="#ff2a2a"/>
        </linearGradient>
        <linearGradient id="innoGrad0">
            <stop offset="0" stop-color="#ffd5d5"/>
            <stop offset="1" stop-color="#faa"/>
        </linearGradient>
        <radialGradient id="radialGradient1022" cx="319.489" cy="-40.496" r="60.084" fx="319.489" fy="-40.496" gradientTransform="matrix(.25462 .22499 -.59758 .6763 -72.28 33.644)" gradientUnits="userSpaceOnUse" xlink:href="#innoGrad1"/>
    </defs>
    <g>
        <path fill="url(#radialGradient1022)" d="M58.09 59.59c-17.02 0-30.818 15.733-30.818 35.141 0 19.408 13.797 35.141 30.818 35.141 17.02 0 30.818-15.733 30.818-35.141 0-19.408-11.288-35.42-30.818-35.141zm3.514 9.471c10.6 0 16.405 11.382 16.405 25.422 0 14.039-6.084 25.001-16.684 25.002-10.6 0-18.914-10.963-18.914-25.002 0-14.04 8.593-25.422 19.193-25.422z" transform="translate(-19.272 -51.586)"/>
        <path style="font-variation-settings:normal;-inkscape-stroke:none" fill="#fff" fill-opacity=".709" d="M25.57 22.088c.014 1.9-4.224 9.738-4.601 18.408-.378 8.669 1.873 10.291 2.092 15.06.218 4.769-5.699-4.668-5.3-14.642.4-9.974 7.796-20.726 7.81-18.826zM63.77 57.575c-.009-1.397 3.486-7.088 3.73-13.46.242-6.371-1.207-10.074-1.277-11.836-.071-1.762 2.273 4.616 2.016 11.947-.257 7.331-4.46 14.746-4.469 13.35zM41.666 70.667c.662-.394 3.648-.32 6.718-1.946 3.07-1.627 4.085-2.555 5.726-3.615 1.642-1.06-2.165 2.87-5.693 4.755-3.528 1.885-7.414 1.2-6.751.806zM35.19 9.505c.737.274 6.132-.206 9.657.626 3.525.832 8.499 3.15 7.668 2.303-.83-.845-4.49-2.359-7.475-3.226-2.985-.867-10.586.024-9.85.297z"/>
    </g>
</svg>
