<?xml version="1.0" encoding="UTF-8" standalone="no"?>
<!-- Created with Inkscape (http://www.inkscape.org/) -->

<svg
   width="256"
   height="256"
   viewBox="0 0 256 256.00001"
   version="1.1"
   id="svg5"
   inkscape:version="1.1 (c68e22c387, 2021-05-23)"
   sodipodi:docname="piercing_ladder.svg"
   xmlns:inkscape="http://www.inkscape.org/namespaces/inkscape"
   xmlns:sodipodi="http://sodipodi.sourceforge.net/DTD/sodipodi-0.dtd"
   xmlns:xlink="http://www.w3.org/1999/xlink"
   xmlns="http://www.w3.org/2000/svg"
   xmlns:svg="http://www.w3.org/2000/svg">
  <sodipodi:namedview
     id="namedview7"
     pagecolor="#ffffff"
     bordercolor="#666666"
     borderopacity="1.0"
     inkscape:pageshadow="2"
     inkscape:pageopacity="0.0"
     inkscape:pagecheckerboard="0"
     inkscape:document-units="px"
     showgrid="false"
     inkscape:zoom="1.8973437"
     inkscape:cx="-16.865685"
     inkscape:cy="18.710369"
     inkscape:window-width="1920"
     inkscape:window-height="1017"
     inkscape:window-x="1912"
     inkscape:window-y="-8"
     inkscape:window-maximized="1"
     inkscape:current-layer="layer1"
     inkscape:snap-global="false"
     units="px"
     inkscape:snap-nodes="false"
     inkscape:snap-others="false" />
  <defs
     id="defs2">
    <linearGradient
       id="innoGrad2">
      <stop
         stop-color="#ff8080"
         offset="0"
         id="stop5147" />
      <stop
         stop-color="#faa"
         offset="1"
         id="stop5149" />
    </linearGradient>
    <inkscape:path-effect
       effect="bspline"
       id="path-effect3015"
       is_visible="true"
       lpeversion="1"
       weight="33.333333"
       steps="2"
       helper_size="0"
       apply_no_weight="true"
       apply_with_weight="true"
       only_selected="false" />
    <inkscape:path-effect
       effect="bspline"
       id="path-effect2047"
       is_visible="true"
       lpeversion="1"
       weight="33.333333"
       steps="2"
       helper_size="0"
       apply_no_weight="true"
       apply_with_weight="true"
       only_selected="false" />
    <linearGradient
       id="linearGradient1057"
       x1="-76.626999"
       x2="-59.382999"
       y1="9.0584002"
       y2="45.962002"
       gradientTransform="translate(44.37796,133.02572)"
       gradientUnits="userSpaceOnUse"
       xlink:href="#innoGrad1" />
    <linearGradient
       id="innoGrad2-0">
      <stop
         stop-color="#ff8080"
         offset="0"
         id="stop825"
         style="stop-color:#9c9c9c;stop-opacity:0.69256759" />
      <stop
         stop-color="#faa"
         offset="1"
         id="stop827"
         style="stop-color:#999999;stop-opacity:0.91891891" />
    </linearGradient>
    <linearGradient
       id="innoGrad1"
       x1="37.66457"
       x2="14.21783"
       y1="74.644867"
       y2="116.29183"
       gradientTransform="rotate(-147.42122,77.544655,-25.123553)"
       gradientUnits="userSpaceOnUse"
       xlink:href="#radialGradient4642">
      <stop
         stop-color="#f55"
         offset="0"
         id="stop830" />
      <stop
         stop-color="#ff8080"
         offset="1"
         id="stop832" />
    </linearGradient>
    <linearGradient
       id="linearGradient4632"
       x1="-223.05093"
       x2="-202.99933"
       y1="-16.689098"
       y2="12.892821"
       gradientUnits="userSpaceOnUse"
       xlink:href="#innoGrad1"
       gradientTransform="matrix(0.72617172,0,0,0.72291295,150.942,239.61065)" />
    <radialGradient
       id="radialGradient4642"
       cx="110.67"
       cy="195.71001"
       r="47.787998"
       gradientTransform="matrix(1,0,0,1.0275,0,-5.4255)"
       gradientUnits="userSpaceOnUse">
      <stop
         stop-color="#f55"
         offset="0"
         id="stop836" />
      <stop
         stop-color="#f55"
         offset=".66964"
         id="stop838" />
      <stop
         stop-color="#ff8080"
         offset=".80206"
         id="stop840" />
      <stop
         stop-color="#faa"
         offset="1"
         id="stop842" />
    </radialGradient>
    <linearGradient
       inkscape:collect="always"
       xlink:href="#innoGrad2-0"
       id="linearGradient4687"
       x1="115.40273"
       y1="104.59427"
       x2="180.16412"
       y2="160.5515"
       gradientUnits="userSpaceOnUse"
       gradientTransform="translate(-4.8448725,31.30533)" />
    <linearGradient
       inkscape:collect="always"
       xlink:href="#innoGrad1"
       id="linearGradient7676"
       gradientUnits="userSpaceOnUse"
       gradientTransform="rotate(-147.42122,77.544655,-25.123553)"
       x1="37.66457"
       y1="74.644867"
       x2="14.21783"
       y2="116.29183" />
    <linearGradient
       inkscape:collect="always"
       xlink:href="#innoGrad1"
       id="linearGradient7860"
       gradientUnits="userSpaceOnUse"
       gradientTransform="matrix(0.42798739,0,0,0.43752136,-193.62752,-17.422886)"
       x1="-76.626999"
       y1="9.0584002"
       x2="-59.382999"
       y2="45.962002" />
    <linearGradient
       inkscape:collect="always"
       xlink:href="#innoGrad2-0"
       id="linearGradient9269"
       x1="111.70227"
       y1="136.90211"
       x2="92.43856"
       y2="119.21879"
       gradientUnits="userSpaceOnUse" />
    <linearGradient
       inkscape:collect="always"
       xlink:href="#innoGrad1"
       id="linearGradient10264"
       gradientUnits="userSpaceOnUse"
       gradientTransform="matrix(-0.5163553,-0.20142728,0.32995361,-0.31522021,65.650273,228.50508)"
       x1="37.66457"
       y1="74.644867"
       x2="14.21783"
       y2="116.29183" />
  </defs>
  <g
     inkscape:label="Layer 1"
     inkscape:groupmode="layer"
     id="layer1">
    <g
       id="g894"
       transform="matrix(0.40660252,0.12540745,-0.12540745,0.40660252,-10.108695,216.51264)"
       inkscape:label="g894">
      <g
         stroke="#000000"
         stroke-width="1.1025"
         id="g857">
        <path
           d="m 224.46189,-133.84628 c -29.6879,-8.56378 -92.82984,8.02746 -81.44746,71.447974 0.14371,4.166345 19.85473,2.285274 22.81406,2.029564 -15.82118,-50.608048 29.2723,-55.280748 57.59052,-63.194828 z"
           fill="url(#linearGradient1059)"
           fill-rule="evenodd"
           id="path847"
           style="fill:url(#linearGradient7676);fill-opacity:1"
           sodipodi:nodetypes="ccccc" />
        <g
           stroke-linecap="round"
           id="g855"
           inkscape:groupmode="layer">
          <ellipse
             transform="matrix(-0.44720926,-0.89442936,0.88402266,-0.46744404,0,0)"
             cx="7.7409358"
             cy="260.90189"
             rx="16.712841"
             ry="16.747002"
             fill="url(#linearGradient4632)"
             id="ellipse849"
             style="fill:url(#linearGradient4632);fill-opacity:1;stroke-width:0.799158;stroke-miterlimit:4;stroke-dasharray:none" />
          <ellipse
             transform="rotate(-117.22)"
             cx="-22.04804"
             cy="165.70973"
             rx="23.014999"
             ry="23.166"
             fill="url(#linearGradient1057)"
             id="ellipse853"
             style="fill:url(#linearGradient1057);fill-opacity:1" />
        </g>
      </g>
      <g
         fill="#ffffff"
         id="g865">
        <path
           d="m 224.75708,-143.3326 c 1.68945,0.16364 3.87398,0.26775 6.60968,1.44689 1.69336,0.72988 2.98485,1.64395 3.63721,2.29231 0.41278,0.41024 0.91571,1.00819 1.41127,1.76723 1.12805,1.72767 1.94121,3.85481 2.17973,6.1491 0.23948,2.30299 -0.16165,4.00759 -0.42337,5.15207 0.25679,-1.12299 0.27733,-2.92944 -0.40825,-5.02283 -0.69495,-2.12208 -1.88408,-3.88541 -3.13023,-5.28192 -0.54968,-0.61604 -1.04355,-1.08937 -1.40528,-1.44887 -0.59621,-0.59255 -1.37839,-1.53834 -2.69086,-2.54879 -1.96907,-1.51596 -4.17243,-2.34954 -5.78,-2.50519 z"
           id="path859"
           style="stroke-width:0.739073" />
        <path
           d="m 158.19963,-104.59774 c 0.14175,-0.30484 0.3957,-1.06506 0.92744,-2.00325 0.54469,-0.96093 1.27776,-1.98009 1.784,-2.50992 -1e-5,1e-5 0.01,-0.0101 0.01,-0.0101 1.0443,-1.09154 3.07452,-2.97926 6.02221,-5.23452 2.32659,-1.78011 4.89463,-3.53402 7.49141,-5.05671 3.42399,-2.00765 5.92385,-3.04976 7.65275,-3.69629 -1.68296,0.62934 -4.21466,1.85394 -7.46102,4.00387 -2.49484,1.65229 -4.93837,3.53706 -7.13622,5.42395 -2.81536,2.41699 -4.64019,4.3243 -5.67858,5.41119 3e-4,-3.1e-4 -0.01,0.0101 -0.01,0.0101 -0.46203,0.48357 -1.43444,1.31739 -2.18655,2.03705 -0.78686,0.75287 -1.26452,1.29983 -1.4157,1.62489 z"
           id="path863" />
        <path
           d="m 155.33043,-73.98904 c 2.38378,0.09931 5.47267,0.09469 9.27683,1.386914 2.35472,0.799877 4.12878,1.852269 5.01349,2.614855 0.5598,0.482513 1.23587,1.191838 1.89165,2.100987 1.49278,2.069329 2.51498,4.652301 2.71276,7.477254 0.19862,2.835662 -0.47389,4.969866 -0.91464,6.402321 0.43245,-1.405556 0.57192,-3.642563 -0.27157,-6.191558 -0.85502,-2.583932 -2.43216,-4.693664 -4.1125,-6.345918 -0.74121,-0.728858 -1.41205,-1.2845 -1.90262,-1.707335 -0.80856,-0.696942 -1.85905,-1.81971 -3.65694,-2.990105 -2.69735,-1.755924 -5.76835,-2.652986 -8.0366,-2.747409 z"
           id="path9723"
           style="stroke-width:0.97767" />
      </g>
    </g>
    <use
       x="0"
       y="0"
       xlink:href="#g894"
       id="use1973"
       width="100%"
       height="100%"
       transform="matrix(0.82821953,0,0,0.90746459,50.759979,-14.782889)" />
    <use
       x="0"
       y="0"
       xlink:href="#g894"
       id="use1975"
       width="100%"
       height="100%"
       transform="matrix(0.78050536,0,0,0.90773516,76.996832,-43.470053)" />
    <use
       x="0"
       y="0"
       xlink:href="#g894"
       id="use1977"
       width="100%"
       height="100%"
       transform="matrix(0.76229266,0,0,0.89225455,103.86498,-70.905683)" />
    <use
       x="0"
       y="0"
       xlink:href="#g894"
       id="use1979"
       width="100%"
       height="100%"
       transform="matrix(0.73290309,0,0,0.87684387,128.93833,-98.858412)" />
    <path
       style="font-variation-settings:normal;display:inline;opacity:1;fill:url(#linearGradient9269);fill-opacity:1;stroke:#000000;stroke-width:0.3;stroke-linecap:butt;stroke-linejoin:miter;stroke-miterlimit:4;stroke-dasharray:none;stroke-dashoffset:0;stroke-opacity:0.766129;stop-color:#000000;stop-opacity:1"
       d="m 213.11045,21.525157 c 5.90565,2.203791 -43.01849,78.968083 -67.76428,105.932253 -24.74578,26.96417 -43.86001,53.22218 -66.710163,69.69164 -22.850152,16.46945 -55.227878,27.7221 -54.016356,23.14764 1.211523,-4.57445 -28.289151,-27.8151 -20.520144,-51.09883 7.769007,-23.28373 47.088111,-40.13054 70.436993,-62.98335 23.348878,-22.852807 78.06368,-96.121251 95.7794,-96.152083 17.71572,-0.03083 36.88889,9.258939 42.79455,11.46273 z"
       id="path4724"
       sodipodi:nodetypes="zzzzzzzz" />
    <path
       style="font-variation-settings:normal;display:inline;opacity:1;fill:url(#linearGradient4687);fill-opacity:1;stroke:#000000;stroke-width:0.3;stroke-linecap:butt;stroke-linejoin:miter;stroke-miterlimit:4;stroke-dasharray:none;stroke-dashoffset:0;stroke-opacity:0.766129;stop-color:#000000;stop-opacity:1"
       d="m 216.52853,23.106315 c 15.5954,6.303298 -40.84634,80.368385 -60.37457,111.804745 -19.52823,31.43636 -39.38781,52.84949 -62.237971,69.31895 -22.850152,16.46945 -65.768265,36.86285 -67.455532,21.61558 -1.687266,-15.24727 -29.7346675,-31.65108 -22.36095,-56.64773 7.373718,-24.99665 47.088111,-40.13054 70.436993,-62.98335 23.348878,-22.852807 68.10266,-82.523825 86.08965,-92.425258 17.98699,-9.9014334 40.30699,3.013765 55.90238,9.317063 z"
       id="path3698"
       sodipodi:nodetypes="zzzzzzzz" />
    <g
       id="g9721"
       style="display:inline;stroke:none;stroke-opacity:1">
      <path
         d="m 60.180371,200.71275 c -2.89409,1.14207 -3.588347,0.65068 -3.466808,6.74132 0.08806,1.55855 7.487266,0.26194 9.300667,0.16629 0.473463,-1.14964 0.611814,-1.90823 0.945715,-3.83962 0.333902,-1.93139 -3.885484,-4.21006 -6.779574,-3.06799 z"
         fill="url(#linearGradient1059)"
         fill-rule="evenodd"
         id="path10181"
         style="fill:url(#linearGradient10264);fill-opacity:1;stroke:#000000;stroke-width:0.3;stroke-miterlimit:4;stroke-dasharray:none;stroke-opacity:1"
         sodipodi:nodetypes="zcczz" />
      <ellipse
         transform="matrix(-0.28815218,-0.95758463,0.95851664,-0.28503657,0,0)"
         cx="-222.05701"
         cy="-3.1229441"
         rx="9.850131"
         ry="10.13562"
         fill="url(#linearGradient1057)"
         id="ellipse7815"
         style="display:inline;fill:url(#linearGradient7860);fill-opacity:1;stroke:#000000;stroke-width:0.284988;stroke-miterlimit:4;stroke-dasharray:none;stroke-opacity:1" />
      <path
         d="m 59.878872,205.04993 c 0.749956,0.048 1.779952,0.0689 3.149126,0.51469 1.30292,0.42418 2.342975,1.07322 2.872327,1.55313 0.0891,0.0807 0.188598,0.17882 0.294628,0.29253 0.646157,0.69286 1.335669,1.74059 1.761178,2.99539 0.434644,1.28168 0.432623,2.25381 0.446766,2.92423 -0.01368,-0.64928 -0.264073,-1.65102 -0.914241,-2.72884 -0.659122,-1.09268 -1.46847,-1.86243 -2.112606,-2.43425 -0.104709,-0.093 -0.198195,-0.17509 -0.277939,-0.24739 -0.500434,-0.45371 -1.183085,-1.17803 -2.31831,-1.85415 -1.111612,-0.66209 -2.190308,-0.96996 -2.900992,-1.01531 z"
         id="path861"
         style="fill:#ffffff;fill-opacity:1;stroke:none;stroke-width:0.410668;stroke-opacity:1" />
    </g>
    <use
       x="0"
       y="0"
       xlink:href="#g9721"
       id="use10811"
       width="100%"
       height="100%"
       transform="matrix(0.95000351,0,0,0.95000351,44.436831,-23.345831)" />
    <use
       x="0"
       y="0"
       xlink:href="#g9721"
       id="use10893"
       width="100%"
       height="100%"
       transform="matrix(0.8988044,0,0,0.8988044,71.014876,-41.547593)" />
    <use
       x="0"
       y="0"
       xlink:href="#g9721"
       id="use10895"
       width="100%"
       height="100%"
       transform="matrix(0.86667603,0,0,0.86667603,98.733741,-65.330023)" />
    <use
       x="0"
       y="0"
       xlink:href="#g9721"
       id="use10897"
       width="100%"
       height="100%"
       transform="matrix(0.87478443,0,0,0.91268949,122.17388,-106.70899)"
       style="display:inline" />
  </g>
</svg>
